<svg xmlns="http://www.w3.org/2000/svg" viewBox="0 0 64 64">
  <rect width="64" height="64" rx="16" fill="#2f8df3"/>
  <path d="M15 47c4.6-7.2 10.4-10.8 17-10.8S44.4 39.8 49 47" fill="none" stroke="#8ee3a2" stroke-width="5" stroke-linecap="round"/>
  <circle cx="25" cy="18" r="5.4" fill="#ffffff"/>
  <circle cx="39" cy="18" r="5.4" fill="#ffffff"/>
  <circle cx="18" cy="31" r="5.4" fill="#ffffff"/>
  <circle cx="46" cy="31" r="5.4" fill="#ffffff"/>
  <path d="M32 29c-8.3 0-15.2 7.8-15.2 16.4 0 5.4 4.6 8.7 9.4 6.4 2.1-1 3.7-2 5.8-2s3.7 1 5.8 2c4.8 2.3 9.4-1 9.4-6.4C47.2 36.8 40.3 29 32 29Z" fill="#ffffff"/>
</svg>
